<?xml version="1.0" encoding="UTF-8"?><svg xmlns="http://www.w3.org/2000/svg" height="1000" viewBox="0 0 1000 1000" width="1000"><g><g><linearGradient gradientUnits="userSpaceOnUse" id="a" x1="520.983" x2="439.901" y1="-51.233" y2="204.649"><stop offset="0" stop-color="#00c9fd"/><stop offset=".132" stop-color="#01b5f1"/><stop offset=".537" stop-color="#057dd0"/><stop offset=".838" stop-color="#075abc"/><stop offset="1" stop-color="#084db4"/></linearGradient><path d="M580.92,192.69c-4.58,10.41-10.11,20.73-16.77,30.85l-182.99-15.6l-78.81-6.71c0,0,41.07-12.48,93.64-35.72 C464.37,135.36,552.2,87,594.42,24.4C594.42,24.4,617.36,110.29,580.92,192.69z" fill="url(#a)"/><linearGradient gradientUnits="userSpaceOnUse" id="b" x1="304.325" x2="303.814" y1="199.477" y2="201.087"><stop offset="0" stop-color="#00c9fd"/><stop offset=".132" stop-color="#01b5f1"/><stop offset=".537" stop-color="#057dd0"/><stop offset=".838" stop-color="#075abc"/><stop offset="1" stop-color="#084db4"/></linearGradient><path d="M305.57,200.2c-1.09,0.37-1.94,0.64-2.48,0.83l-0.69-0.13C302.4,200.89,303.49,200.65,305.57,200.2z" fill="url(#b)"/><linearGradient gradientUnits="userSpaceOnUse" id="c" x1="304.444" x2="304.175" y1="200.834" y2="201.684"><stop offset="0" stop-color="#00c9fd"/><stop offset=".132" stop-color="#01b5f1"/><stop offset=".537" stop-color="#057dd0"/><stop offset=".838" stop-color="#075abc"/><stop offset="1" stop-color="#084db4"/></linearGradient><path d="M303.09,201.03l3.09,0.53l-3.83-0.32C302.35,201.24,302.61,201.16,303.09,201.03z" fill="url(#c)"/><linearGradient gradientUnits="userSpaceOnUse" id="d" x1="491.886" x2="410.804" y1="-24.474" y2="231.408"><stop offset=".083" stop-color="#00c9fd"/><stop offset=".308" stop-color="#03a0e5"/><stop offset=".591" stop-color="#0673cb"/><stop offset=".81" stop-color="#0757ba"/><stop offset=".937" stop-color="#084db4"/></linearGradient><path d="M594.42,24.4c-27.73,54.48-86.27,103.35-141.58,140.32c-25.74,17.19-50.76,31.81-71.68,43.23l-78.81-6.71 c0,0,41.07-12.48,93.64-35.72C464.37,135.36,552.2,87,594.42,24.4z" fill="url(#d)"/><linearGradient gradientUnits="userSpaceOnUse" id="e" x1="694.787" x2="558.153" y1="-33.688" y2="306.556"><stop offset="0" stop-color="#00c9fd"/><stop offset=".132" stop-color="#01b5f1"/><stop offset=".537" stop-color="#057dd0"/><stop offset=".838" stop-color="#075abc"/><stop offset="1" stop-color="#084db4"/></linearGradient><path d="M699.37,296.07c-3.81,7.8-8.2,15.54-13.2,23.16L502.8,303.61l-78.41-6.68c0,0,34.23-10.41,80.2-29.86 c37.56-15.94,82.91-37.88,123.82-65.16c35.24-23.48,67.18-50.89,88.02-81.79C716.43,120.11,740.81,211.41,699.37,296.07z" fill="url(#e)"/><linearGradient gradientUnits="userSpaceOnUse" id="f" x1="654.099" x2="517.466" y1=".109" y2="340.354"><stop offset="0" stop-color="#00c9fd"/><stop offset=".132" stop-color="#01b5f1"/><stop offset=".537" stop-color="#057dd0"/><stop offset=".838" stop-color="#075abc"/><stop offset="1" stop-color="#084db4"/></linearGradient><path d="M716.43,120.11c-40.78,79.9-147.86,147.62-213.81,183.47l-78.23-6.65 C424.39,296.93,641.74,230.84,716.43,120.11z" fill="url(#f)"/><linearGradient gradientUnits="userSpaceOnUse" id="g" x1="758.9" x2="240.828" y1="1220.467" y2="541.289"><stop offset="0" stop-color="#00c9fd"/><stop offset=".132" stop-color="#01b5f1"/><stop offset=".537" stop-color="#057dd0"/><stop offset=".838" stop-color="#075abc"/><stop offset="1" stop-color="#084db4"/></linearGradient><path d="M519.92,975.6c-139.63-34.31-220.28-121.27-266.65-204.76c-17.73-31.97-30.42-63.4-39.5-91.19 c-15.25-46.66-20.23-83.04-21.51-94.3c-0.27-2.4-0.37-3.65-0.37-3.65l5.46-1.41l39.85-10.38l22.44-5.83v-0.03l87.46-22.76 l10.33-2.69l41.84-10.89l97.31,142.05c-19.91,52.49-24.09,103.73-20.76,148.76C482.52,909.7,519.92,975.6,519.92,975.6z" fill="url(#g)"/><linearGradient gradientUnits="userSpaceOnUse" id="h" x1="739.14" x2="221.068" y1="1235.54" y2="556.362"><stop offset="0" stop-color="#00c9fd"/><stop offset=".156" stop-color="#01bdf6"/><stop offset=".438" stop-color="#039de3"/><stop offset=".812" stop-color="#0669c5"/><stop offset="1" stop-color="#084db4"/></linearGradient><path d="M519.92,975.6c-301.62-74.1-328.03-393.9-328.03-393.9l155.2-40.4C333.33,636.66,330.11,842.07,519.92,975.6z" fill="url(#h)"/><linearGradient gradientUnits="userSpaceOnUse" id="i" x1="252.329" x2="319.718" y1="1025.988" y2="434.227"><stop offset="0" stop-color="#00c9fd"/><stop offset=".132" stop-color="#01b5f1"/><stop offset=".537" stop-color="#057dd0"/><stop offset=".838" stop-color="#075abc"/><stop offset="1" stop-color="#084db4"/></linearGradient><path d="M470.86,442.39c-46.26,23.13-83.52,57.31-113.44,96.22c-4.21,5.4-8.25,10.91-12.14,16.5 c-10.67,15.3-20.34,31.17-29.07,47.25c0,0,0,0,0,0.03c-6.57,12.11-12.62,24.33-18.15,36.52v0.03 c-21.59,47.48-35.72,94.44-44.8,131.91c-11.26,46.74-14.61,78.79-14.61,78.79c-59.01-76.02-81.77-154.3-86.13-224.51 c-0.83-13.73-0.98-27.15-0.56-40.16c3.73-116.08,52.73-201.52,52.73-201.52l127.73,28.29L470.86,442.39z" fill="url(#i)"/><linearGradient gradientUnits="userSpaceOnUse" id="j" x1="182.274" x2="249.664" y1="1018.01" y2="426.25"><stop offset="0" stop-color="#00c9fd"/><stop offset=".178" stop-color="#01b9f4"/><stop offset=".526" stop-color="#048fdb"/><stop offset="1" stop-color="#084db4"/></linearGradient><path d="M332.43,411.72c-17.81,19.64-47.46,56.24-72.8,106.23v0.03c-8.09,15.97-15.76,33.32-22.44,51.93 c-0.83,2.29-1.62,4.6-2.42,6.95c-10.59,31.09-18.39,65.53-21,102.79c-3.7,51.66,2.53,108.78,24.89,169.98 c-59.01-76.02-81.77-154.3-86.13-224.51c-0.83-13.73-0.98-27.15-0.56-40.16c3.73-116.08,52.73-201.52,52.73-201.52L332.43,411.72z" fill="url(#j)"/><linearGradient gradientUnits="userSpaceOnUse" id="k" x1="-121.969" x2="598.262" y1="418.438" y2="390.008"><stop offset="0" stop-color="#00c9fd"/><stop offset=".132" stop-color="#01b5f1"/><stop offset=".537" stop-color="#057dd0"/><stop offset=".838" stop-color="#075abc"/><stop offset="1" stop-color="#084db4"/></linearGradient><path d="M706.15,303.07l-63.45,46.58l-56.64,41.55c-127.26-18.82-233.7,16.72-315.25,65.61 C151.16,528.55,85.02,629.03,85.02,629.03S42.17,417.37,194.87,264.64c109.08-109.05,276.92-101.97,396.96-46.69 C639.88,240.07,680.26,269.88,706.15,303.07z" fill="url(#k)"/><linearGradient gradientUnits="userSpaceOnUse" id="l" x1="-121.969" x2="598.262" y1="418.438" y2="390.008"><stop offset=".067" stop-color="#00c9fd"/><stop offset=".502" stop-color="#048dda"/><stop offset="1" stop-color="#084db4"/></linearGradient><path d="M706.15,303.07l-63.45,46.58c-85.04-56.93-196.33-88.23-300.45-54.35c-14.83,4.82-29.49,10.97-43.92,18.53 C107.09,414.2,85.02,629.03,85.02,629.03S42.17,417.37,194.87,264.64c109.08-109.05,276.92-101.97,396.96-46.69 C639.88,240.07,680.26,269.88,706.15,303.07z" fill="url(#l)"/><linearGradient gradientUnits="userSpaceOnUse" id="m" x1="466.596" x2="658.226" y1="951.826" y2="522.236"><stop offset="0" stop-color="#00c9fd"/><stop offset=".132" stop-color="#01b5f1"/><stop offset=".537" stop-color="#057dd0"/><stop offset=".838" stop-color="#075abc"/><stop offset="1" stop-color="#084db4"/></linearGradient><path d="M730.93,910.92c-102.98-13.84-226.14-52.7-291.53-163.75c-27.63-46.87-44.93-106.63-46.07-182.78 l168.8-46.45l2.18,12.78c0,0-3.46,8.2-7.16,22.57C541.74,613.35,521.96,781.22,730.93,910.92z" fill="url(#m)"/><linearGradient gradientUnits="userSpaceOnUse" id="n" x1="585.908" x2="472.187" y1="932.749" y2="552.274"><stop offset="0" stop-color="#00c9fd"/><stop offset=".143" stop-color="#02b3ec"/><stop offset=".543" stop-color="#067bbf"/><stop offset=".84" stop-color="#0958a3"/><stop offset="1" stop-color="#0a4b99"/></linearGradient><path d="M564.31,530.73c0,0-3.46,8.2-7.16,22.57c-63.67,36.41-125.39,101.04-117.75,193.88 c-27.63-46.87-44.93-106.63-46.07-182.78l168.8-46.45L564.31,530.73z" fill="url(#n)"/><linearGradient gradientUnits="userSpaceOnUse" id="o" x1="478.33" x2="513.162" y1="897.863" y2="289.64"><stop offset="0" stop-color="#00c9fd"/><stop offset=".132" stop-color="#01b5f1"/><stop offset=".537" stop-color="#057dd0"/><stop offset=".838" stop-color="#075abc"/><stop offset="1" stop-color="#084db4"/></linearGradient><path d="M669.16,518.14c-8.65-2.02-20.52-2.66-34.44-1.76c-91.08,5.88-270.56,78.04-221.75,268.62 c0,0-85.68-83.87-85.44-200.05c0.05-25.15,4.13-51.85,14-79.5l192.92-85.73L669.16,518.14z" fill="url(#o)"/><linearGradient gradientUnits="userSpaceOnUse" id="p" x1="538.823" x2="484.068" y1="908.606" y2="425.641"><stop offset="0" stop-color="#00c9fd"/><stop offset=".143" stop-color="#02b3ec"/><stop offset=".543" stop-color="#067bbf"/><stop offset=".84" stop-color="#0958a3"/><stop offset="1" stop-color="#0a4b99"/></linearGradient><path d="M669.16,518.14c-8.65-2.02-20.52-2.66-34.44-1.76c-156.35-12.24-257.17,21.56-307.19,68.57 c0.05-25.15,4.13-51.85,14-79.5l192.92-85.73L669.16,518.14z" fill="url(#p)"/><linearGradient gradientUnits="userSpaceOnUse" id="q" x1="107.598" x2="1053.164" y1="140.405" y2="835.364"><stop offset="0" stop-color="#00c9fd"/><stop offset=".132" stop-color="#01b5f1"/><stop offset=".537" stop-color="#057dd0"/><stop offset=".838" stop-color="#075abc"/><stop offset="1" stop-color="#084db4"/></linearGradient><path d="M918.1,469.56c-19.83,37.69-77.72,99.52-236.92,51.64c-219.72-66.09-351.9-24.99-394.78,39.29 c0,0-4.63-83.31,26.91-167.29v-0.03c21.37-56.91,59.38-114.11,126.72-145.86c58.1-27.39,110.81-23.66,151.05-15.14 c47.01,9.98,87.01,37.93,119.99,72.9c24.27,25.77,62.76,67.26,113.18,98.83c0.03,0,0.03,0,0.05,0 c24.22,15.17,51.18,28,80.62,35.69C917.92,442.97,924.36,457.67,918.1,469.56z" fill="url(#q)"/><linearGradient gradientUnits="userSpaceOnUse" id="r" x1="276.963" x2="820.298" y1="47.344" y2="701.241"><stop offset=".14" stop-color="#00c9fd"/><stop offset=".347" stop-color="#02a8ea"/><stop offset=".791" stop-color="#0667c3"/><stop offset="1" stop-color="#084db4"/></linearGradient><path d="M824.26,403.91c-56.15-6.93-93.85-27.63-199.8-91.93c-105.99-64.3-239.33-8.33-311.16,81.2 c21.38-56.91,59.4-114.12,126.74-145.86c58.11-27.41,110.8-23.68,151.03-15.15c47.03,9.98,87.03,37.93,119.99,72.9 C735.36,330.83,773.85,372.35,824.26,403.91z" fill="url(#r)"/><linearGradient gradientUnits="userSpaceOnUse" id="s" x1="200.558" x2="1010.398" y1="219.792" y2="814.996"><stop offset="0" stop-color="#00c9fd"/><stop offset=".012" stop-color="#00c7fc"/><stop offset=".235" stop-color="#039be2"/><stop offset=".452" stop-color="#0579ce"/><stop offset=".656" stop-color="#0761c0"/><stop offset=".844" stop-color="#0852b7"/><stop offset="1" stop-color="#084db4"/></linearGradient><path d="M918.1,469.56c-19.83,37.69-77.72,99.52-236.92,51.64c-219.72-66.09-351.9-24.99-394.78,39.29 c33.91-86.29,103.41-176.87,263.45-124.22C709.93,488.91,844.11,549.17,918.1,469.56z" fill="url(#s)"/></g><path d="M535.89,313.8c0,0,42.64,48.1,77.32,53.43c34.68,5.33,53.88,15.48,63.17,35.66c0,0-8.49-45.01-36.66-57.29 C611.56,333.32,544.92,325.9,535.89,313.8z" fill="#fcfbfe"/></g></svg>