<svg xmlns="http://www.w3.org/2000/svg" xmlns:xlink="http://www.w3.org/1999/xlink" width="500" zoomAndPan="magnify" viewBox="0 0 375 374.999991" height="500" preserveAspectRatio="xMidYMid meet" version="1.0"><defs><g/><clipPath id="b151d592c3"><path d="M 145 127 L 238.03125 127 L 238.03125 203.328125 L 145 203.328125 Z M 145 127 " clip-rule="nonzero"/></clipPath><clipPath id="7ca6f392ad"><path d="M 136.808594 99.828125 L 230 99.828125 L 230 176 L 136.808594 176 Z M 136.808594 99.828125 " clip-rule="nonzero"/></clipPath></defs><g fill="#0c2950" fill-opacity="1"><g transform="translate(47.301743, 247.442329)"><g><path d="M 8.875 0 L 14.804688 0 L 20.808594 -17.105469 L 26.8125 0 L 32.703125 0 L 41.238281 -26.433594 L 34.890625 -26.433594 L 32.363281 -18.390625 L 29.53125 -9.589844 L 26.472656 -18.390625 L 23.640625 -26.433594 L 17.9375 -26.433594 L 15.105469 -18.390625 L 12.085938 -9.703125 L 9.289062 -18.390625 L 6.757812 -26.433594 L 0.378906 -26.433594 Z M 8.875 0 "/></g></g></g><g fill="#0c2950" fill-opacity="1"><g transform="translate(87.777931, 247.442329)"><g><path d="M 15.710938 0.527344 C 23.980469 0.527344 29.832031 -5.136719 29.832031 -13.21875 C 29.832031 -21.296875 23.980469 -26.960938 15.710938 -26.960938 C 7.4375 -26.960938 1.625 -21.296875 1.625 -13.21875 C 1.625 -5.136719 7.4375 0.527344 15.710938 0.527344 Z M 7.742188 -13.21875 C 7.742188 -17.976562 11.027344 -21.261719 15.710938 -21.261719 C 20.429688 -21.261719 23.675781 -17.976562 23.675781 -13.21875 C 23.675781 -8.457031 20.429688 -5.171875 15.710938 -5.171875 C 11.027344 -5.171875 7.742188 -8.457031 7.742188 -13.21875 Z M 7.742188 -13.21875 "/></g></g></g><g fill="#0c2950" fill-opacity="1"><g transform="translate(118.09726, 247.442329)"><g><path d="M 3.171875 0 L 9.175781 0 L 9.175781 -8.230469 L 13.140625 -8.230469 L 17.863281 0 L 24.808594 0 L 19.335938 -9.175781 C 22.507812 -10.574219 24.355469 -13.445312 24.355469 -17.332031 C 24.355469 -22.960938 20.503906 -26.433594 14.464844 -26.433594 L 3.171875 -26.433594 Z M 9.101562 -13.292969 L 9.101562 -21.296875 L 13.671875 -21.296875 C 16.617188 -21.296875 18.277344 -19.863281 18.277344 -17.296875 C 18.277344 -14.726562 16.617188 -13.292969 13.671875 -13.292969 Z M 9.101562 -13.292969 "/></g></g></g><g fill="#0c2950" fill-opacity="1"><g transform="translate(143.545839, 247.442329)"><g><path d="M 3.171875 0 L 13.632812 0 C 21.976562 0 27.566406 -5.324219 27.566406 -13.21875 C 27.566406 -21.070312 21.976562 -26.433594 13.632812 -26.433594 L 3.171875 -26.433594 Z M 9.175781 -5.511719 L 9.175781 -20.921875 L 13.445312 -20.921875 C 18.203125 -20.921875 21.410156 -17.863281 21.410156 -13.21875 C 21.410156 -8.570312 18.203125 -5.511719 13.519531 -5.511719 Z M 9.175781 -5.511719 "/></g></g></g><g fill="#0c2950" fill-opacity="1"><g transform="translate(171.561935, 247.442329)"><g/></g></g><g fill="#0c2950" fill-opacity="1"><g transform="translate(179.3021, 247.442329)"><g><path d="M 3.171875 0 L 9.175781 0 L 9.175781 -9.101562 L 18.769531 -9.101562 L 18.769531 -14.386719 L 9.175781 -14.386719 L 9.175781 -20.996094 L 19.75 -20.996094 L 19.75 -26.433594 L 3.171875 -26.433594 Z M 3.171875 0 "/></g></g></g><g fill="#0c2950" fill-opacity="1"><g transform="translate(199.577848, 247.442329)"><g><path d="M 3.171875 0 L 20.730469 0 L 20.730469 -5.625 L 9.175781 -5.625 L 9.175781 -26.433594 L 3.171875 -26.433594 Z M 3.171875 0 "/></g></g></g><g fill="#0c2950" fill-opacity="1"><g transform="translate(220.193417, 247.442329)"><g><path d="M 3.171875 0 L 9.175781 0 L 9.175781 -26.433594 L 3.171875 -26.433594 Z M 3.171875 0 "/></g></g></g><g fill="#0c2950" fill-opacity="1"><g transform="translate(231.407299, 247.442329)"><g><path d="M 3.171875 0 L 9.175781 0 L 9.175781 -7.363281 L 13.519531 -7.363281 C 19.902344 -7.363281 24.015625 -11.101562 24.015625 -16.878906 C 24.015625 -22.695312 19.902344 -26.433594 13.519531 -26.433594 L 3.171875 -26.433594 Z M 9.136719 -12.539062 L 9.136719 -21.183594 L 13.027344 -21.183594 C 16.164062 -21.183594 17.898438 -19.597656 17.898438 -16.84375 C 17.898438 -14.085938 16.164062 -12.539062 13.027344 -12.539062 Z M 9.136719 -12.539062 "/></g></g></g><g fill="#0c2950" fill-opacity="1"><g transform="translate(255.383311, 247.442329)"><g><path d="M 3.171875 0 L 9.175781 0 L 9.175781 -7.363281 L 13.519531 -7.363281 C 19.902344 -7.363281 24.015625 -11.101562 24.015625 -16.878906 C 24.015625 -22.695312 19.902344 -26.433594 13.519531 -26.433594 L 3.171875 -26.433594 Z M 9.136719 -12.539062 L 9.136719 -21.183594 L 13.027344 -21.183594 C 16.164062 -21.183594 17.898438 -19.597656 17.898438 -16.84375 C 17.898438 -14.085938 16.164062 -12.539062 13.027344 -12.539062 Z M 9.136719 -12.539062 "/></g></g></g><g fill="#0c2950" fill-opacity="1"><g transform="translate(279.359323, 247.442329)"><g><path d="M 3.171875 0 L 20.957031 0 L 20.957031 -5.097656 L 9.136719 -5.097656 L 9.136719 -10.875 L 19.523438 -10.875 L 19.523438 -15.898438 L 9.136719 -15.898438 L 9.136719 -21.375 L 20.542969 -21.375 L 20.542969 -26.433594 L 3.171875 -26.433594 Z M 3.171875 0 "/></g></g></g><g fill="#0c2950" fill-opacity="1"><g transform="translate(301.107628, 247.442329)"><g><path d="M 3.171875 0 L 9.175781 0 L 9.175781 -8.230469 L 13.140625 -8.230469 L 17.863281 0 L 24.808594 0 L 19.335938 -9.175781 C 22.507812 -10.574219 24.355469 -13.445312 24.355469 -17.332031 C 24.355469 -22.960938 20.503906 -26.433594 14.464844 -26.433594 L 3.171875 -26.433594 Z M 9.101562 -13.292969 L 9.101562 -21.296875 L 13.671875 -21.296875 C 16.617188 -21.296875 18.277344 -19.863281 18.277344 -17.296875 C 18.277344 -14.726562 16.617188 -13.292969 13.671875 -13.292969 Z M 9.101562 -13.292969 "/></g></g></g><g clip-path="url(#b151d592c3)"><path fill="#9c1f66" d="M 219.734375 127.601562 L 232.039062 127.601562 C 235.863281 134.753906 238.03125 142.929688 238.03125 151.613281 C 238.03125 179.6875 215.367188 202.445312 187.40625 202.445312 C 178.515625 202.445312 170.15625 200.144531 162.894531 196.097656 L 158.753906 203.300781 L 145.042969 179.453125 L 172.464844 179.453125 L 168.105469 187.035156 C 173.835938 190.191406 180.414062 191.984375 187.40625 191.984375 C 209.613281 191.984375 227.613281 173.90625 227.613281 151.609375 C 227.613281 142.617188 224.683594 134.3125 219.734375 127.601562 " fill-opacity="1" fill-rule="nonzero"/></g><g clip-path="url(#7ca6f392ad)"><path fill="#0423a1" d="M 216.007812 99.84375 L 229.714844 123.6875 L 202.296875 123.6875 L 206.632812 116.144531 C 200.921875 113.015625 194.371094 111.238281 187.40625 111.238281 C 165.199219 111.238281 147.199219 129.3125 147.199219 151.613281 C 147.199219 160.570312 150.105469 168.84375 155.019531 175.542969 L 142.730469 175.542969 C 138.933594 168.410156 136.78125 160.261719 136.78125 151.613281 C 136.78125 123.539062 159.449219 100.777344 187.40625 100.777344 C 196.269531 100.777344 204.597656 103.066406 211.84375 107.082031 Z M 216.007812 99.84375 " fill-opacity="1" fill-rule="nonzero"/></g><path fill="#0c2950" d="M 170.507812 153.664062 C 170.507812 145.210938 163.683594 138.359375 155.265625 138.359375 C 154.367188 138.359375 153.484375 138.4375 152.628906 138.589844 C 151.117188 142.648438 150.289062 147.042969 150.289062 151.632812 C 150.289062 157.882812 151.824219 163.777344 154.53125 168.949219 C 154.777344 168.960938 155.019531 168.96875 155.265625 168.96875 C 163.683594 168.96875 170.507812 162.117188 170.507812 153.664062 Z M 211.441406 152.527344 C 196.9375 152.527344 185.183594 164.332031 185.183594 178.894531 C 185.183594 182.4375 185.878906 185.8125 187.136719 188.898438 C 187.226562 188.898438 187.316406 188.898438 187.402344 188.898438 C 206.46875 188.898438 222.175781 174.46875 224.277344 155.890625 C 220.484375 153.75 216.105469 152.527344 211.441406 152.527344 Z M 210.390625 136.6875 C 213.203125 136.6875 215.480469 138.976562 215.480469 141.796875 C 215.480469 144.621094 213.203125 146.910156 210.390625 146.910156 C 207.578125 146.910156 205.300781 144.621094 205.300781 141.796875 C 205.300781 138.976562 207.578125 136.6875 210.390625 136.6875 Z M 186.402344 119.984375 C 194.339844 119.984375 200.773438 126.445312 200.773438 134.414062 C 200.773438 142.382812 194.339844 148.84375 186.402344 148.84375 C 178.464844 148.84375 172.03125 142.382812 172.03125 134.414062 C 172.03125 126.445312 178.464844 119.984375 186.402344 119.984375 " fill-opacity="1" fill-rule="nonzero"/><path stroke-linecap="butt" transform="matrix(-0.75, -0.000000000000000092, 0.000000000000000092, -0.75, 345.411222, 292.17798)" fill="none" stroke-linejoin="miter" d="M 32.673298 50.997727 L 40.725382 50.997727 L 46.204549 41.081059 L 53.261841 28.195642 L 55.277466 41.081059 L 56.678508 50.997727 L 64.386842 50.997727 L 82.813926 15.758141 L 74.110801 15.758141 L 62.470175 38.216476 L 60.709758 26.476892 L 59.100383 15.758141 L 51.491007 15.758141 L 45.553507 26.476892 L 39.162882 38.055018 L 37.798298 26.476892 L 36.54309 15.758141 L 28.334756 15.758141 Z M 96.30351 51.700852 C 107.022261 51.700852 115.886845 44.461268 118.001429 33.987309 C 120.162887 22.961267 113.62122 15.044599 102.241011 15.044599 C 91.52226 15.044599 82.657676 22.2946 80.543093 32.768559 C 78.381634 43.794601 84.918093 51.700852 96.30351 51.700852 Z M 88.642052 33.534184 C 89.912885 27.127933 95.293094 22.653975 101.589969 22.653975 C 107.735803 22.653975 111.15247 26.930017 109.897261 33.226892 C 108.584761 39.617518 103.246219 44.101893 96.954552 44.101893 C 90.756635 44.101893 87.392051 39.825851 88.642052 33.534184 Z M 119.459762 50.997727 L 127.506637 50.997727 L 129.735804 40.023768 L 135.116013 40.023768 L 139.246222 50.997727 L 148.256639 50.997727 L 143.475389 38.867518 C 148.06393 37.107101 151.183722 33.482101 152.178514 28.492517 C 153.741014 20.784183 149.412889 15.758141 141.105597 15.758141 L 126.511846 15.758141 Z M 130.938929 33.273767 L 133.100388 22.601892 L 138.991013 22.601892 C 143.267055 22.601892 144.829555 24.570642 144.12643 27.841475 C 143.428514 31.258142 140.90768 33.273767 136.678513 33.273767 Z M 153.339972 50.997727 L 167.438932 50.997727 C 178.709766 50.997727 187.178516 44.508143 189.183725 34.331059 C 191.298308 23.612308 184.954558 15.758141 174.089974 15.758141 L 160.392056 15.758141 Z M 162.902473 43.648768 L 166.985807 23.1071 L 172.772265 23.1071 C 179.069141 23.1071 182.334766 27.081058 181.084766 33.226892 C 179.829558 39.471684 174.688932 43.648768 168.345182 43.648768 Z M 201.063934 50.997727 L 209.225393 50.997727 L 211.636851 38.867518 L 224.319144 38.867518 L 225.735811 31.810225 L 213.04831 31.810225 L 214.808727 23.008142 L 228.808727 23.008142 L 230.220186 15.758141 L 208.121226 15.758141 Z M 228.147269 50.997727 L 251.563937 50.997727 L 253.079562 43.502935 L 237.761853 43.502935 L 243.355603 15.758141 L 235.204561 15.758141 Z M 255.688938 50.997727 L 263.850396 50.997727 L 270.892064 15.758141 L 262.741021 15.758141 Z M 270.787897 50.997727 L 278.949356 50.997727 L 280.907689 41.180018 L 286.756648 41.180018 C 295.558732 41.180018 301.397274 36.997726 302.959774 29.351892 C 304.522274 21.336266 299.787899 15.758141 291.428523 15.758141 L 277.845189 15.758141 Z M 282.220189 34.284184 L 284.532689 22.752933 L 289.621231 22.752933 C 293.897273 22.752933 295.605607 24.867517 294.954565 28.445642 C 294.204565 32.018559 291.428523 34.284184 287.152481 34.284184 Z M 302.808732 50.997727 L 310.970191 50.997727 L 312.923316 41.180018 L 318.777483 41.180018 C 327.579567 41.180018 333.418109 36.997726 334.975401 29.351892 C 336.537901 21.336266 331.803526 15.758141 323.44415 15.758141 L 309.866024 15.758141 Z M 314.241025 34.284184 L 316.548317 22.752933 L 321.642067 22.752933 C 325.918109 22.752933 327.626442 24.867517 326.975401 28.445642 C 326.225401 32.018559 323.44415 34.284184 319.168108 34.284184 Z M 334.824359 50.997727 L 358.537903 50.997727 L 359.902486 44.200851 L 344.29311 44.200851 L 345.850402 36.492517 L 359.548319 36.492517 L 360.912903 29.810225 L 347.16811 29.810225 L 348.616027 22.508141 L 363.725403 22.508141 L 365.043111 15.758141 L 341.881652 15.758141 Z M 363.876445 50.997727 L 371.92332 50.997727 L 374.152487 40.023768 L 379.532696 40.023768 L 383.662904 50.997727 L 392.673322 50.997727 L 387.892071 38.867518 C 392.480613 37.107101 395.600405 33.482101 396.595197 28.492517 C 398.157697 20.784183 393.829572 15.758141 385.522279 15.758141 L 370.928528 15.758141 Z M 375.355612 33.273767 L 377.517071 22.601892 L 383.407696 22.601892 C 387.683738 22.601892 389.246238 24.570642 388.543113 27.841475 C 387.845196 31.258142 385.324363 33.273767 381.095196 33.273767 Z M 375.355612 33.273767 " stroke="#0c2950" stroke-width="1.888208" stroke-opacity="1" stroke-miterlimit="4"/></svg>